<?xml version="1.0" encoding="UTF-8" standalone="no"?>
<svg
   xmlns:dc="http://purl.org/dc/elements/1.1/"
   xmlns:cc="http://creativecommons.org/ns#"
   xmlns:rdf="http://www.w3.org/1999/02/22-rdf-syntax-ns#"
   xmlns:svg="http://www.w3.org/2000/svg"
   xmlns="http://www.w3.org/2000/svg"
   xmlns:sodipodi="http://sodipodi.sourceforge.net/DTD/sodipodi-0.dtd"
   xmlns:inkscape="http://www.inkscape.org/namespaces/inkscape"
   version="1.1"
   id="svg2"
   xml:space="preserve"
   width="300"
   height="300"
   viewBox="0 0 300.00003 299.99997"
   sodipodi:docname="krayon_icon.svg"
   inkscape:version="1.0.2 (e86c870879, 2021-01-15, custom)"
   inkscape:export-filename="C:\Users\Vince Satsong\Desktop\krayon.png"
   inkscape:export-xdpi="600"
   inkscape:export-ydpi="600"><metadata
     id="metadata8"><rdf:RDF><cc:Work
         rdf:about=""><dc:format>image/svg+xml</dc:format><dc:type
           rdf:resource="http://purl.org/dc/dcmitype/StillImage" /><dc:title></dc:title></cc:Work></rdf:RDF></metadata><defs
     id="defs6"><inkscape:perspective
       sodipodi:type="inkscape:persp3d"
       inkscape:vp_x="408.17935 : -169.32532 : 1"
       inkscape:vp_y="0 : 834.58035 : 0"
       inkscape:vp_z="1033.2338 : -169.32532 : 1"
       inkscape:persp3d-origin="720.70664 : -317.69522 : 1"
       id="perspective1037" /></defs><sodipodi:namedview
     pagecolor="#ffffff"
     bordercolor="#666666"
     borderopacity="1"
     objecttolerance="10"
     gridtolerance="10"
     guidetolerance="10"
     inkscape:pageopacity="0"
     inkscape:pageshadow="2"
     inkscape:window-width="1939"
     inkscape:window-height="1144"
     id="namedview4"
     inkscape:document-rotation="0"
     showgrid="false"
     inkscape:zoom="0.68906245"
     inkscape:cx="770.24943"
     inkscape:cy="456.90101"
     inkscape:window-x="249"
     inkscape:window-y="27"
     inkscape:window-maximized="0"
     inkscape:current-layer="g10"
     units="px" /><g
     inkscape:groupmode="layer"
     id="layer1"
     inkscape:label="logo_2" /><g
     id="g10"
     inkscape:groupmode="layer"
     inkscape:label="logo_1"
     transform="matrix(1.3333333,0,0,-1.3333333,0,1066.6667)"><g
       id="g846"
       transform="matrix(1.2790698,0,0,1.2790698,-31.153064,-205.09422)"
       style="stroke-width:0.781819"
       inkscape:export-xdpi="600"
       inkscape:export-ydpi="600"><rect
         style="fill:#0088bb;fill-opacity:1;stroke-width:0.586361"
         id="rect1053"
         width="161.25"
         height="161.25"
         x="32.25"
         y="-778.25006"
         ry="11.91342"
         rx="11.913421"
         transform="scale(1,-1)" /><path
         d="m 116.93582,771.89566 c 17.96431,3.19323 34.33406,-5.32544 36.37713,-18.93034 v 0 c 2.04299,-13.60433 -10.98355,-27.3483 -28.94786,-30.54151 v 0 l -47.728819,-8.48397 c 0,0 -0.15621,50.76061 40.294989,57.95558 0.001,0 0.002,0.001 0.004,0.001 v 0"
         style="fill:#f2f2f2;fill-opacity:1;fill-rule:nonzero;stroke:none;stroke-width:0.0414652"
         id="path18" /><path
         d="m 113.20249,650.63985 c 5.28565,0 9.60895,4.34218 9.60895,9.64823 0,5.30725 -4.3233,9.64823 -9.60895,9.64823 -5.28445,0 -9.60777,-4.34098 -9.60777,-9.64823 0,-5.30605 4.32332,-9.64823 9.60777,-9.64823 z m 36.56623,9.65664 c 0,-0.002 0,-0.006 0,-0.008 v 0 c 0,-20.19302 -16.45419,-36.71568 -36.56623,-36.71568 v 0 c -20.110829,0 -36.566229,16.52266 -36.566229,36.71568 v 0 53.65176 c 0,0 73.122879,-8.1748 73.132459,-53.64335"
         style="fill:#f2f2f2;fill-opacity:1;fill-rule:nonzero;stroke:none;stroke-width:0.0759002"
         id="path20" /></g></g></svg>
